<svg xmlns="http://www.w3.org/2000/svg" viewBox="0 0 800 500" role="img" aria-labelledby="t d"><title id="t">Colorful lanterns</title><desc id="d">A simple illustration of colorful lanterns at night.</desc><rect width="800" height="500" fill="#12355b"/><circle cx="120" cy="90" r="38" fill="#ffd166"/><g stroke="#f7fff7" stroke-width="3"><line x1="0" y1="130" x2="800" y2="70"/></g><g><ellipse cx="210" cy="150" rx="55" ry="70" fill="#e63946"/><rect x="160" y="145" width="100" height="10" fill="#fff3b0"/><line x1="210" y1="80" x2="210" y2="220" stroke="#7f1d1d" stroke-width="4"/></g><g><ellipse cx="390" cy="125" rx="48" ry="62" fill="#f4a261"/><rect x="348" y="120" width="84" height="10" fill="#fff3b0"/><line x1="390" y1="63" x2="390" y2="187" stroke="#7a3e00" stroke-width="4"/></g><g><ellipse cx="580" cy="105" rx="52" ry="68" fill="#2a9d8f"/><rect x="533" y="100" width="94" height="10" fill="#dff"/><line x1="580" y1="37" x2="580" y2="173" stroke="#064e3b" stroke-width="4"/></g><path d="M0 370 Q190 310 370 360 T800 345 L800 500 L0 500Z" fill="#0b1f33"/><rect x="90" y="300" width="150" height="115" fill="#e9c46a"/><path d="M70 300 L165 230 L260 300Z" fill="#bc6c25"/><rect x="140" y="345" width="45" height="70" fill="#12355b"/></svg>
